<svg width="917" height="280" viewBox="0 0 917 280" fill="none" xmlns="http://www.w3.org/2000/svg">
<path d="M99.1099 161.667L117.128 188.592C117.011 190.584 116.415 193.083 115.339 196.089C114.273 199.04 112.373 202.245 109.636 205.705C106.899 209.164 102.928 212.63 97.721 216.102C93.2906 219.057 88.7347 221.02 84.0541 221.994C79.3519 222.935 74.6862 222.848 70.0578 221.733C65.4615 220.595 61.0422 218.43 56.7999 215.236C52.5361 212.009 48.611 207.716 45.0246 202.357L41.7516 197.466C38.1869 192.139 35.674 186.951 34.213 181.902C32.7628 176.799 32.3267 171.954 32.9049 167.366C33.4831 162.778 35.054 158.556 37.6177 154.698C40.1921 150.787 43.7431 147.321 48.2708 144.302C54.0597 140.441 59.4943 138.218 64.5744 137.632C69.6652 136.992 74.3797 137.676 78.7179 139.686C83.0565 141.696 86.9582 144.696 90.4246 148.688L78.4909 156.647C76.4612 154.451 74.2321 152.763 71.804 151.581C69.4081 150.377 66.808 149.917 64.0037 150.199C61.2101 150.428 58.1801 151.631 54.9137 153.809C52.1001 155.686 49.9825 157.868 48.561 160.358C47.1394 162.846 46.4085 165.598 46.3682 168.613C46.3602 171.607 46.9943 174.826 48.2704 178.271C49.5465 181.716 51.4592 185.342 54.0085 189.152L57.3463 194.14C59.9389 198.014 62.644 201.183 65.4617 203.646C68.3117 206.088 71.2042 207.824 74.1393 208.855C77.1064 209.865 80.0785 210.147 83.0557 209.703C86.0106 209.227 88.9109 208.039 91.7575 206.141C94.5384 204.286 96.6674 202.54 98.1437 200.902C99.5983 199.231 100.627 197.729 101.23 196.393C101.843 195.003 102.236 193.808 102.408 192.806L93.0419 178.811L78.343 188.612L72.2834 179.557L99.1099 161.667Z" fill="#C7981F"/>
<path d="M135.196 154.871L134.615 153.664C132.644 149.569 131.412 145.486 130.918 141.416C130.409 137.31 130.652 133.424 131.649 129.757C132.663 126.04 134.456 122.682 137.025 119.683C139.613 116.631 142.974 114.114 147.111 112.129C151.282 110.127 155.352 109.079 159.319 108.985C163.305 108.838 167.069 109.531 170.611 111.062C174.137 112.558 177.345 114.788 180.239 117.75C183.116 120.678 185.54 124.189 187.512 128.283L188.093 129.49C190.064 133.585 191.296 137.667 191.789 141.738C192.283 145.809 192.021 149.704 191.006 153.422C189.975 157.104 188.183 160.463 185.631 163.497C183.061 166.496 179.708 168.988 175.572 170.973C171.401 172.974 167.322 174.048 163.336 174.194C159.368 174.289 155.622 173.588 152.097 172.092C148.555 170.561 145.345 168.331 142.468 165.404C139.592 162.476 137.168 158.965 135.196 154.871ZM147.287 147.583L147.869 148.791C149.098 151.345 150.524 153.634 152.144 155.656C153.766 157.678 155.55 159.277 157.497 160.454C159.445 161.631 161.53 162.288 163.755 162.427C165.979 162.566 168.301 162.055 170.72 160.894C173.068 159.767 174.866 158.302 176.111 156.498C177.393 154.677 178.181 152.641 178.477 150.387C178.773 148.134 178.637 145.744 178.067 143.218C177.533 140.674 176.651 138.125 175.42 135.57L174.839 134.364C173.626 131.844 172.2 129.599 170.561 127.628C168.94 125.606 167.13 123.997 165.131 122.803C163.166 121.592 161.072 120.916 158.848 120.778C156.641 120.587 154.347 121.063 151.963 122.207C149.579 123.351 147.755 124.851 146.492 126.706C145.245 128.51 144.483 130.556 144.204 132.844C143.924 135.132 144.069 137.539 144.639 140.066C145.191 142.558 146.074 145.064 147.287 147.583Z" fill="#C7981F"/>
<path d="M209.14 58.4618L240.139 142.394L226.893 147.269L195.894 63.3373L209.14 58.4618Z" fill="#C7981F"/>
<path d="M297.013 111.373L277.454 37.5006L291.103 33.8989L314.002 120.383L301.65 123.642L297.013 111.373ZM252.759 104.677L252.446 103.495C251.224 98.8777 250.655 94.5294 250.742 90.451C250.819 86.3346 251.528 82.6335 252.871 79.3475C254.204 76.0235 256.161 73.2385 258.744 70.9902C261.317 68.7054 264.465 67.0714 268.187 66.0892C271.873 65.1168 275.295 64.9768 278.455 65.6689C281.615 66.3612 284.526 67.7818 287.187 69.9309C289.838 72.0428 292.233 74.7838 294.373 78.1548C296.502 81.4884 298.404 85.3238 300.075 89.6616L301.074 93.4344C301.738 97.9175 301.964 102.114 301.753 106.026C301.541 109.937 300.806 113.464 299.546 116.608C298.286 119.751 296.435 122.408 293.993 124.579C291.588 126.739 288.524 128.31 284.802 129.293C281.117 130.266 277.585 130.374 274.208 129.619C270.867 128.854 267.795 127.356 264.991 125.123C262.188 122.891 259.744 120.042 257.66 116.576C255.565 113.073 253.932 109.106 252.759 104.677ZM266.039 99.9079L266.352 101.09C267.087 103.868 268.018 106.393 269.142 108.667C270.305 110.93 271.675 112.838 273.253 114.389C274.82 115.903 276.608 116.958 278.616 117.552C280.651 118.099 282.891 118.051 285.336 117.406C288.419 116.592 290.778 115.247 292.413 113.369C294.048 111.492 295.126 109.26 295.648 106.673C296.198 104.038 296.302 101.239 295.96 98.2776L293.262 88.0865C292.449 85.9314 291.433 83.9909 290.211 82.2652C289.027 80.529 287.664 79.1022 286.12 77.9833C284.567 76.8264 282.821 76.0824 280.884 75.7507C278.973 75.3712 276.852 75.489 274.521 76.1048C272.038 76.7593 270.072 77.8402 268.62 79.3482C267.17 80.8556 266.123 82.6774 265.482 84.8147C264.879 86.9414 264.637 89.2941 264.756 91.8734C264.876 94.4519 265.303 97.1303 266.039 99.9079Z" fill="#C7981F"/>
<path d="M370.905 111.504C366.279 112.125 361.996 111.935 358.055 110.936C354.147 109.893 350.699 108.182 347.71 105.801C344.76 103.415 342.343 100.468 340.458 96.9603C338.572 93.4522 337.343 89.5625 336.768 85.2917L336.458 82.9831C335.8 78.0959 335.917 73.5747 336.81 69.4203C337.703 65.2655 339.232 61.613 341.398 58.4628C343.559 55.274 346.273 52.6967 349.54 50.7307C352.807 48.7647 356.465 47.5102 360.512 46.9675C364.984 46.3678 368.997 46.5934 372.553 47.6444C376.108 48.6953 379.168 50.4395 381.733 52.8769C384.331 55.2706 386.421 58.2615 388.003 61.8493C389.623 65.4319 390.736 69.4747 391.342 73.9765L392.142 79.9215L343.805 86.4047L342.461 76.4186L377.037 71.7819L376.89 70.6853C376.476 68.194 375.659 65.914 374.438 63.8448C373.257 61.7703 371.65 60.1837 369.619 59.0851C367.587 57.9864 365.029 57.6439 361.946 58.0575C359.633 58.3676 357.638 59.1445 355.961 60.3879C354.317 61.5877 353.023 63.1913 352.076 65.1985C351.13 67.2059 350.505 69.5619 350.202 72.2664C349.932 74.9269 350.015 77.8737 350.45 81.106L350.761 83.4147C351.128 86.1468 351.836 88.6373 352.884 90.8864C353.966 93.0922 355.355 94.9625 357.053 96.4974C358.752 98.0323 360.708 99.1609 362.924 99.8825C365.135 100.565 367.571 100.728 370.23 100.372C373.584 99.9213 376.481 98.8478 378.921 97.1489C381.361 95.4508 383.378 93.2413 384.974 90.5196L393.273 96.6346C392.188 98.7778 390.687 100.899 388.773 102.997C386.852 105.057 384.406 106.853 381.434 108.388C378.501 109.918 374.991 110.956 370.905 111.504Z" fill="#C7981F"/>
<path d="M434.267 55.0308L434.73 104.589L420.671 104.721L420.082 41.7094L433.324 41.5858L434.267 55.0308ZM431.905 70.7777L427.355 70.7621C427.352 66.297 427.936 62.1953 429.106 58.4569C430.316 54.7182 431.997 51.4992 434.15 48.8C436.342 46.1005 438.967 44.0182 442.026 42.553C445.085 41.049 448.5 40.2794 452.272 40.2442C455.306 40.2159 458.052 40.6173 460.51 41.4486C463.007 42.2407 465.139 43.5604 466.906 45.4075C468.712 47.2544 470.097 49.6683 471.058 52.649C472.019 55.5909 472.52 59.2166 472.56 63.526L472.941 104.233L458.824 104.365L458.442 63.5995C458.413 60.5713 457.944 58.1878 457.033 56.4491C456.161 54.6712 454.885 53.4211 453.206 52.6991C451.565 51.9379 449.52 51.5687 447.07 51.5915C444.658 51.614 442.505 52.1389 440.609 53.1661C438.712 54.1933 437.111 55.5867 435.805 57.3461C434.538 59.1051 433.565 61.1332 432.887 63.4304C432.208 65.7275 431.881 68.1769 431.905 70.7777Z" fill="#C7981F"/>
<path d="M539.825 77.7269L517.891 74.9486L519.352 63.4515L541.287 66.2297C545.106 66.7135 548.272 66.4882 550.782 65.5537C553.292 64.6193 555.225 63.142 556.579 61.1219C557.977 59.0682 558.855 56.6354 559.212 53.8237C559.55 51.166 559.307 48.6108 558.481 46.158C557.7 43.6717 556.222 41.5668 554.049 39.8436C551.877 38.1204 548.881 37.0169 545.062 36.5331L527.583 34.3193L518.36 106.885L503.833 105.046L514.525 20.9243L546.53 24.978C553.05 25.8039 558.44 27.6607 562.7 30.5483C567.002 33.4024 570.092 37.003 571.971 41.3503C573.854 45.6591 574.468 50.394 573.811 55.5553C573.121 60.9862 571.333 65.4953 568.446 69.0826C565.56 72.6697 561.689 75.2125 556.833 76.7108C552.015 78.2144 546.346 78.5528 539.825 77.7269Z" fill="#C7981F"/>
<path d="M620.809 126.492C616.298 125.298 612.413 123.487 609.155 121.059C605.944 118.602 603.414 115.704 601.565 112.363C599.754 109.032 598.65 105.385 598.253 101.425C597.856 97.4635 598.211 93.4001 599.317 89.2345L599.914 86.9824C601.18 82.2167 603.022 78.0847 605.439 74.587C607.856 71.0894 610.669 68.2991 613.878 66.2159C617.096 64.0951 620.592 62.7505 624.364 62.1821C628.136 61.6137 631.996 61.8516 635.943 62.8961C640.304 64.0499 643.926 65.7913 646.808 68.1202C649.69 70.4498 651.849 73.2296 653.284 76.4611C654.767 79.6651 655.552 83.2268 655.638 87.1457C655.762 91.0742 655.241 95.2346 654.075 99.6254L652.536 105.424L605.392 92.9506L607.977 83.2112L641.7 92.1335L641.984 91.0646C642.556 88.6053 642.675 86.1863 642.341 83.8083C642.044 81.4407 641.168 79.3609 639.712 77.5696C638.257 75.779 636.025 74.4856 633.018 73.6895C630.762 73.0931 628.621 73.0484 626.595 73.5568C624.616 74.0376 622.805 75.0246 621.161 76.5178C619.518 78.0109 618.037 79.9491 616.721 82.3316C615.452 84.6872 614.399 87.4409 613.562 90.5934L612.964 92.8454C612.257 95.5097 611.956 98.0815 612.062 100.559C612.216 103.01 612.784 105.269 613.764 107.336C614.744 109.403 616.119 111.193 617.891 112.706C619.672 114.181 621.859 115.262 624.453 115.949C627.724 116.813 630.812 116.927 633.717 116.291C636.622 115.653 639.333 114.382 641.851 112.478L647.174 121.297C645.351 122.863 643.152 124.249 640.578 125.456C638.015 126.626 635.066 127.352 631.732 127.634C628.435 127.927 624.794 127.546 620.809 126.492Z" fill="#C7981F"/>
<path d="M710.101 141.56L738.773 70.7144L751.865 75.9937L718.297 158.935L706.451 154.158L710.101 141.56ZM678.686 109.733L679.145 108.598C680.937 104.171 683.092 100.35 685.609 97.1355C688.141 93.8853 690.93 91.3463 693.977 89.5185C697.038 87.6541 700.277 86.5948 703.694 86.3399C707.126 86.0491 710.627 86.6231 714.197 88.0634C717.731 89.4879 720.555 91.4231 722.671 93.8675C724.785 96.3111 726.263 99.1893 727.104 102.502C727.959 105.778 728.232 109.406 727.923 113.384C727.627 117.327 726.847 121.535 725.582 126.008L724.118 129.625C721.959 133.612 719.622 137.108 717.105 140.113C714.589 143.118 711.882 145.503 708.988 147.267C706.093 149.03 703.016 150.051 699.758 150.327C696.536 150.62 693.14 150.046 689.57 148.605C686.035 147.18 683.143 145.155 680.891 142.531C678.676 139.92 677.116 136.883 676.211 133.419C675.305 129.956 675.058 126.213 675.469 122.191C675.895 118.133 676.967 113.981 678.686 109.733ZM692.181 113.856L691.723 114.99C690.644 117.654 689.874 120.233 689.41 122.725C688.982 125.233 688.934 127.58 689.267 129.766C689.613 131.915 690.411 133.828 691.662 135.506C692.964 137.161 694.787 138.461 697.131 139.407C700.088 140.599 702.784 140.933 705.22 140.408C707.655 139.883 709.859 138.74 711.829 136.981C713.85 135.199 715.612 133.021 717.116 130.445L721.072 120.671C721.716 118.46 722.066 116.298 722.123 114.186C722.217 112.089 721.982 110.13 721.418 108.311C720.868 106.457 719.917 104.817 718.564 103.391C717.262 101.945 715.493 100.771 713.257 99.8691C710.877 98.9097 708.654 98.5989 706.587 98.938C704.52 99.2772 702.589 100.111 700.793 101.438C699.033 102.78 697.428 104.519 695.976 106.656C694.524 108.792 693.259 111.193 692.181 113.856Z" fill="#C7981F"/>
<path d="M799.627 104.535L760.244 179.666L747.265 172.889L786.649 97.758L799.627 104.535Z" fill="#C7981F"/>
<path d="M853.908 149.918L791.816 196.836L779.077 188.302L852.952 135.669L861.091 141.12L853.908 149.918ZM830.527 222.762L850.42 147.582L855.804 137.583L863.996 143.067L843.319 231.328L830.527 222.762ZM847.06 195.965L840.593 205.589L802.226 179.891L808.692 170.267L847.06 195.965Z" fill="#C7981F"/>
</svg>
